<mxfile host="app.diagrams.net" modified="2023-10-13T09:39:49.039Z" agent="Mozilla/5.0 (Windows NT 10.0; Win64; x64) AppleWebKit/537.36 (KHTML, like Gecko) Chrome/117.0.0.0 Safari/537.36 Edg/117.0.2045.47" version="21.5.0" etag="xeDZ6YtQ_YeQx0slYEQP" type="github">
  <diagram name="Page-1" id="9U17NZ5AbLxgAvTrxwjH">
    <mxGraphModel>
      <root>
        <mxCell id="0" />
        <mxCell id="1" parent="0" />
      </root>
    </mxGraphModel>
  </diagram>
</mxfile>
